<svg width="200" height="62" viewBox="0 0 200 62" fill="none" xmlns="http://www.w3.org/2000/svg">
<path opacity="0.8" d="M3.22266 44.8628V15.5659H5.80078V44.8628H3.22266ZM30.0391 44.8628H27.6367V33.6909C27.6367 31.6597 27.0898 30.0646 25.9961 28.9058C24.9023 27.7339 23.3984 27.1479 21.4844 27.1479C20.1432 27.1479 18.9583 27.4409 17.9297 28.0269C16.901 28.5998 16.0938 29.4136 15.5078 30.4683C14.9349 31.5229 14.6484 32.7664 14.6484 34.1987V44.8628H12.2461V25.3315H14.375L14.4531 29.0034C15.1302 27.6883 16.1133 26.6857 17.4023 25.9956C18.6914 25.2925 20.1823 24.9409 21.875 24.9409C24.401 24.9409 26.3932 25.7026 27.8516 27.2261C29.3099 28.7495 30.0391 30.8263 30.0391 33.4565V44.8628ZM39.3945 44.8628H36.9922V27.4995H33.5742V25.3315H36.9922V20.7417C36.9922 19.5959 37.2266 18.5933 37.6953 17.7339C38.1641 16.8615 38.8151 16.1844 39.6484 15.7026C40.4948 15.2209 41.4648 14.98 42.5586 14.98C43.2227 14.98 43.8867 15.0711 44.5508 15.2534C45.2279 15.4357 45.8919 15.7091 46.543 16.0737L45.6055 17.9683C45.1628 17.6948 44.7135 17.493 44.2578 17.3628C43.8021 17.2196 43.3529 17.1479 42.9102 17.1479C41.8555 17.1479 41.0026 17.5256 40.3516 18.2808C39.7135 19.0229 39.3945 19.9995 39.3945 21.2104V25.3315H45.5078V27.4995H39.3945V44.8628ZM59.2383 45.2534C57.3112 45.2534 55.5794 44.8107 54.043 43.9253C52.5065 43.0399 51.2956 41.8354 50.4102 40.312C49.5247 38.7756 49.082 37.0373 49.082 35.0972C49.082 33.1701 49.5247 31.4448 50.4102 29.9214C51.2956 28.3849 52.5065 27.174 54.043 26.2886C55.5794 25.3901 57.3112 24.9409 59.2383 24.9409C61.1523 24.9409 62.8711 25.3901 64.3945 26.2886C65.918 27.174 67.1224 28.3849 68.0078 29.9214C68.8932 31.4448 69.3359 33.1701 69.3359 35.0972C69.3359 37.0243 68.8932 38.756 68.0078 40.2925C67.1224 41.8289 65.918 43.0399 64.3945 43.9253C62.8711 44.8107 61.1523 45.2534 59.2383 45.2534ZM59.2188 43.0854C60.6771 43.0854 61.9792 42.7339 63.125 42.0308C64.2839 41.3276 65.1953 40.3771 65.8594 39.1792C66.5365 37.9683 66.875 36.6076 66.875 35.0972C66.875 33.5868 66.5365 32.2326 65.8594 31.0347C65.1953 29.8237 64.2839 28.8667 63.125 28.1636C61.9792 27.4604 60.6771 27.1089 59.2188 27.1089C57.7604 27.1089 56.4518 27.4604 55.293 28.1636C54.1341 28.8667 53.2161 29.8237 52.5391 31.0347C51.875 32.2326 51.543 33.5868 51.543 35.0972C51.543 36.6076 51.875 37.9683 52.5391 39.1792C53.2161 40.3771 54.1341 41.3276 55.293 42.0308C56.4518 42.7339 57.7604 43.0854 59.2188 43.0854Z" fill="#005691"/>
<path d="M103.614 44H97.3955L90.6938 22.2031L83.9702 44H77.752L67.0293 11.041H74.1265L80.8501 32.9478L87.5737 11.041H93.792L100.494 32.9038L107.173 11.041H114.292L103.614 44ZM117.61 44V11.041H138.88V16.9517H124.378V24.4443H137.979V30.377H124.378V38.0894H139.1V44H117.61ZM167.84 19.3247C166.873 18.3579 165.716 17.6108 164.368 17.0835C163.035 16.5562 161.607 16.2925 160.083 16.2925C158.56 16.2925 157.168 16.5562 155.909 17.0835C154.649 17.6108 153.565 18.3652 152.657 19.3467C151.749 20.3281 151.045 21.5 150.547 22.8623C150.049 24.21 149.8 25.7188 149.8 27.3887C149.8 29.0586 150.049 30.5894 150.547 31.981C151.06 33.3726 151.778 34.5737 152.701 35.5845C153.638 36.5806 154.744 37.3569 156.019 37.9136C157.308 38.4702 158.729 38.7485 160.281 38.7485C161.57 38.7485 162.75 38.5508 163.819 38.1553C164.903 37.7598 165.855 37.1958 166.675 36.4634C167.496 35.731 168.169 34.8447 168.697 33.8047C169.239 32.7646 169.612 31.6001 169.817 30.311H160.259V25.1475H175.772L175.97 27.6963C175.97 30.2012 175.582 32.4937 174.805 34.5737C174.043 36.6538 172.959 38.4482 171.553 39.957C170.147 41.4512 168.47 42.6084 166.521 43.4287C164.588 44.249 162.442 44.6592 160.083 44.6592C157.637 44.6592 155.367 44.2271 153.272 43.3628C151.192 42.4985 149.368 41.29 147.801 39.7373C146.248 38.1846 145.04 36.3682 144.175 34.2881C143.311 32.1934 142.879 29.9302 142.879 27.4985C142.879 25.0669 143.304 22.8184 144.153 20.7529C145.018 18.6729 146.219 16.8564 147.757 15.3037C149.31 13.751 151.119 12.5425 153.184 11.6782C155.25 10.814 157.498 10.3818 159.93 10.3818C162.2 10.3818 164.397 10.7773 166.521 11.5684C168.646 12.3594 170.542 13.4873 172.212 14.9521L167.84 19.3247Z" fill="#005691"/>
</svg>
