<svg width="577" height="58" viewBox="0 0 577 58" fill="none" xmlns="http://www.w3.org/2000/svg">
<rect width="577" height="58" rx="29" fill="white"/>
<rect x="0.5" y="0.5" width="576" height="57" rx="28.5" stroke="black" stroke-opacity="0.16"/>
<path d="M52.809 23.29C54.209 23.29 55.229 23.565 55.869 24.115C56.509 24.665 56.829 25.44 56.829 26.44C56.829 26.88 56.754 27.305 56.604 27.715C56.464 28.115 56.229 28.475 55.899 28.795C55.569 29.115 55.129 29.37 54.579 29.56C54.029 29.74 53.354 29.83 52.554 29.83H51.324V34H49.974V23.29H52.809ZM52.689 24.445H51.324V28.675H52.404C53.084 28.675 53.649 28.605 54.099 28.465C54.549 28.315 54.884 28.08 55.104 27.76C55.324 27.44 55.434 27.02 55.434 26.5C55.434 25.81 55.214 25.295 54.774 24.955C54.334 24.615 53.639 24.445 52.689 24.445ZM61.981 25.81C62.671 25.81 63.261 25.96 63.751 26.26C64.251 26.56 64.631 26.985 64.891 27.535C65.161 28.075 65.296 28.71 65.296 29.44V30.235H59.791C59.811 31.145 60.041 31.84 60.481 32.32C60.931 32.79 61.556 33.025 62.356 33.025C62.866 33.025 63.316 32.98 63.706 32.89C64.106 32.79 64.516 32.65 64.936 32.47V33.625C64.526 33.805 64.121 33.935 63.721 34.015C63.321 34.105 62.846 34.15 62.296 34.15C61.536 34.15 60.861 33.995 60.271 33.685C59.691 33.375 59.236 32.915 58.906 32.305C58.586 31.685 58.426 30.93 58.426 30.04C58.426 29.16 58.571 28.405 58.861 27.775C59.161 27.145 59.576 26.66 60.106 26.32C60.646 25.98 61.271 25.81 61.981 25.81ZM61.966 26.89C61.336 26.89 60.836 27.095 60.466 27.505C60.106 27.905 59.891 28.465 59.821 29.185H63.916C63.916 28.725 63.846 28.325 63.706 27.985C63.566 27.645 63.351 27.38 63.061 27.19C62.781 26.99 62.416 26.89 61.966 26.89ZM72.5778 31.78C72.5778 32.3 72.4478 32.735 72.1878 33.085C71.9278 33.435 71.5578 33.7 71.0778 33.88C70.5978 34.06 70.0278 34.15 69.3678 34.15C68.8078 34.15 68.3228 34.105 67.9128 34.015C67.5128 33.925 67.1578 33.8 66.8478 33.64V32.44C67.1678 32.6 67.5528 32.75 68.0028 32.89C68.4628 33.02 68.9278 33.085 69.3978 33.085C70.0678 33.085 70.5528 32.98 70.8528 32.77C71.1528 32.55 71.3028 32.26 71.3028 31.9C71.3028 31.7 71.2478 31.52 71.1378 31.36C71.0278 31.2 70.8278 31.04 70.5378 30.88C70.2578 30.72 69.8528 30.54 69.3228 30.34C68.8028 30.14 68.3578 29.94 67.9878 29.74C67.6178 29.54 67.3328 29.3 67.1328 29.02C66.9328 28.74 66.8328 28.38 66.8328 27.94C66.8328 27.26 67.1078 26.735 67.6578 26.365C68.2178 25.995 68.9478 25.81 69.8478 25.81C70.3378 25.81 70.7928 25.86 71.2128 25.96C71.6428 26.05 72.0428 26.18 72.4128 26.35L71.9628 27.4C71.7428 27.3 71.5078 27.215 71.2578 27.145C71.0178 27.065 70.7728 27.005 70.5228 26.965C70.2728 26.915 70.0178 26.89 69.7578 26.89C69.2178 26.89 68.8028 26.98 68.5128 27.16C68.2328 27.33 68.0928 27.565 68.0928 27.865C68.0928 28.085 68.1578 28.275 68.2878 28.435C68.4178 28.585 68.6328 28.735 68.9328 28.885C69.2428 29.025 69.6528 29.195 70.1628 29.395C70.6728 29.585 71.1078 29.78 71.4678 29.98C71.8278 30.18 72.1028 30.425 72.2928 30.715C72.4828 30.995 72.5778 31.35 72.5778 31.78ZM79.8755 34.165C79.8755 33.985 79.8805 33.775 79.8905 33.535C79.9005 33.295 79.9205 33.09 79.9505 32.92H79.8605C79.6305 33.26 79.3105 33.55 78.9005 33.79C78.5005 34.03 77.9805 34.15 77.3405 34.15C76.3705 34.15 75.5805 33.805 74.9705 33.115C74.3705 32.415 74.0705 31.375 74.0705 29.995C74.0705 29.075 74.2105 28.305 74.4905 27.685C74.7705 27.065 75.1605 26.6 75.6605 26.29C76.1605 25.97 76.7355 25.81 77.3855 25.81C78.0155 25.81 78.5305 25.93 78.9305 26.17C79.3305 26.41 79.6505 26.705 79.8905 27.055H79.9505L80.1455 25.96H81.1955V37.6H79.8755V34.165ZM77.5955 33.055C78.1455 33.055 78.5855 32.955 78.9155 32.755C79.2555 32.555 79.5005 32.25 79.6505 31.84C79.8005 31.42 79.8805 30.9 79.8905 30.28V30.01C79.8905 28.99 79.7205 28.22 79.3805 27.7C79.0405 27.17 78.4355 26.905 77.5655 26.905C76.8455 26.905 76.3105 27.19 75.9605 27.76C75.6105 28.32 75.4355 29.075 75.4355 30.025C75.4355 30.975 75.6105 31.72 75.9605 32.26C76.3205 32.79 76.8655 33.055 77.5955 33.055ZM90.4691 25.96V34H89.3891L89.1941 32.935H89.1341C88.9641 33.215 88.7441 33.445 88.4741 33.625C88.2041 33.805 87.9091 33.935 87.5891 34.015C87.2691 34.105 86.9341 34.15 86.5841 34.15C85.9441 34.15 85.4041 34.05 84.9641 33.85C84.5341 33.64 84.2091 33.32 83.9891 32.89C83.7691 32.46 83.6591 31.905 83.6591 31.225V25.96H84.9941V31.135C84.9941 31.775 85.1391 32.255 85.4291 32.575C85.7191 32.895 86.1691 33.055 86.7791 33.055C87.3791 33.055 87.8491 32.945 88.1891 32.725C88.5391 32.495 88.7841 32.165 88.9241 31.735C89.0741 31.295 89.1491 30.765 89.1491 30.145V25.96H90.4691ZM94.3415 25.96V34H93.0215V25.96H94.3415ZM93.6965 22.945C93.8965 22.945 94.0715 23.015 94.2215 23.155C94.3815 23.285 94.4615 23.495 94.4615 23.785C94.4615 24.065 94.3815 24.275 94.2215 24.415C94.0715 24.555 93.8965 24.625 93.6965 24.625C93.4765 24.625 93.2915 24.555 93.1415 24.415C92.9915 24.275 92.9165 24.065 92.9165 23.785C92.9165 23.495 92.9915 23.285 93.1415 23.155C93.2915 23.015 93.4765 22.945 93.6965 22.945ZM102.124 31.78C102.124 32.3 101.994 32.735 101.734 33.085C101.474 33.435 101.104 33.7 100.624 33.88C100.144 34.06 99.5737 34.15 98.9137 34.15C98.3537 34.15 97.8687 34.105 97.4587 34.015C97.0587 33.925 96.7037 33.8 96.3937 33.64V32.44C96.7137 32.6 97.0987 32.75 97.5487 32.89C98.0087 33.02 98.4737 33.085 98.9437 33.085C99.6137 33.085 100.099 32.98 100.399 32.77C100.699 32.55 100.849 32.26 100.849 31.9C100.849 31.7 100.794 31.52 100.684 31.36C100.574 31.2 100.374 31.04 100.084 30.88C99.8037 30.72 99.3987 30.54 98.8687 30.34C98.3487 30.14 97.9037 29.94 97.5337 29.74C97.1637 29.54 96.8787 29.3 96.6787 29.02C96.4787 28.74 96.3787 28.38 96.3787 27.94C96.3787 27.26 96.6537 26.735 97.2037 26.365C97.7637 25.995 98.4937 25.81 99.3937 25.81C99.8837 25.81 100.339 25.86 100.759 25.96C101.189 26.05 101.589 26.18 101.959 26.35L101.509 27.4C101.289 27.3 101.054 27.215 100.804 27.145C100.564 27.065 100.319 27.005 100.069 26.965C99.8187 26.915 99.5637 26.89 99.3037 26.89C98.7637 26.89 98.3487 26.98 98.0587 27.16C97.7787 27.33 97.6387 27.565 97.6387 27.865C97.6387 28.085 97.7037 28.275 97.8337 28.435C97.9637 28.585 98.1787 28.735 98.4787 28.885C98.7887 29.025 99.1987 29.195 99.7087 29.395C100.219 29.585 100.654 29.78 101.014 29.98C101.374 30.18 101.649 30.425 101.839 30.715C102.029 30.995 102.124 31.35 102.124 31.78ZM107.111 25.825C108.091 25.825 108.816 26.04 109.286 26.47C109.756 26.9 109.991 27.585 109.991 28.525V34H109.031L108.776 32.86H108.716C108.486 33.15 108.246 33.395 107.996 33.595C107.756 33.785 107.476 33.925 107.156 34.015C106.846 34.105 106.466 34.15 106.016 34.15C105.536 34.15 105.101 34.065 104.711 33.895C104.331 33.725 104.031 33.465 103.811 33.115C103.591 32.755 103.481 32.305 103.481 31.765C103.481 30.965 103.796 30.35 104.426 29.92C105.056 29.48 106.026 29.24 107.336 29.2L108.701 29.155V28.675C108.701 28.005 108.556 27.54 108.266 27.28C107.976 27.02 107.566 26.89 107.036 26.89C106.616 26.89 106.216 26.955 105.836 27.085C105.456 27.205 105.101 27.345 104.771 27.505L104.366 26.515C104.716 26.325 105.131 26.165 105.611 26.035C106.091 25.895 106.591 25.825 107.111 25.825ZM107.501 30.115C106.501 30.155 105.806 30.315 105.416 30.595C105.036 30.875 104.846 31.27 104.846 31.78C104.846 32.23 104.981 32.56 105.251 32.77C105.531 32.98 105.886 33.085 106.316 33.085C106.996 33.085 107.561 32.9 108.011 32.53C108.461 32.15 108.686 31.57 108.686 30.79V30.07L107.501 30.115ZM116.225 25.81C116.375 25.81 116.535 25.82 116.705 25.84C116.885 25.85 117.04 25.87 117.17 25.9L117.005 27.115C116.875 27.085 116.73 27.06 116.57 27.04C116.42 27.02 116.275 27.01 116.135 27.01C115.825 27.01 115.53 27.075 115.25 27.205C114.97 27.335 114.72 27.52 114.5 27.76C114.28 27.99 114.105 28.27 113.975 28.6C113.855 28.93 113.795 29.3 113.795 29.71V34H112.475V25.96H113.555L113.705 27.43H113.765C113.935 27.13 114.14 26.86 114.38 26.62C114.62 26.37 114.895 26.175 115.205 26.035C115.515 25.885 115.855 25.81 116.225 25.81ZM126.437 25.81C127.397 25.81 128.122 26.045 128.612 26.515C129.102 26.975 129.347 27.725 129.347 28.765V34H128.042V28.855C128.042 28.205 127.897 27.72 127.607 27.4C127.317 27.08 126.862 26.92 126.242 26.92C125.352 26.92 124.737 27.17 124.397 27.67C124.057 28.17 123.887 28.89 123.887 29.83V34H122.567V25.96H123.632L123.827 27.055H123.902C124.082 26.775 124.302 26.545 124.562 26.365C124.832 26.175 125.127 26.035 125.447 25.945C125.767 25.855 126.097 25.81 126.437 25.81ZM138.83 29.965C138.83 30.635 138.74 31.23 138.56 31.75C138.39 32.26 138.14 32.695 137.81 33.055C137.49 33.415 137.095 33.69 136.625 33.88C136.165 34.06 135.65 34.15 135.08 34.15C134.55 34.15 134.06 34.06 133.61 33.88C133.16 33.69 132.77 33.415 132.44 33.055C132.11 32.695 131.85 32.26 131.66 31.75C131.48 31.23 131.39 30.635 131.39 29.965C131.39 29.075 131.54 28.325 131.84 27.715C132.14 27.095 132.57 26.625 133.13 26.305C133.69 25.975 134.355 25.81 135.125 25.81C135.855 25.81 136.495 25.975 137.045 26.305C137.605 26.625 138.04 27.095 138.35 27.715C138.67 28.325 138.83 29.075 138.83 29.965ZM132.755 29.965C132.755 30.595 132.835 31.145 132.995 31.615C133.165 32.075 133.425 32.43 133.775 32.68C134.125 32.93 134.57 33.055 135.11 33.055C135.65 33.055 136.095 32.93 136.445 32.68C136.795 32.43 137.05 32.075 137.21 31.615C137.38 31.145 137.465 30.595 137.465 29.965C137.465 29.325 137.38 28.78 137.21 28.33C137.04 27.88 136.78 27.535 136.43 27.295C136.09 27.045 135.645 26.92 135.095 26.92C134.275 26.92 133.68 27.19 133.31 27.73C132.94 28.27 132.755 29.015 132.755 29.965ZM143.607 33.07C143.807 33.07 144.012 33.055 144.222 33.025C144.432 32.985 144.602 32.945 144.732 32.905V33.91C144.592 33.98 144.392 34.035 144.132 34.075C143.872 34.125 143.622 34.15 143.382 34.15C142.962 34.15 142.572 34.08 142.212 33.94C141.862 33.79 141.577 33.535 141.357 33.175C141.137 32.815 141.027 32.31 141.027 31.66V26.98H139.887V26.35L141.042 25.825L141.567 24.115H142.347V25.96H144.672V26.98H142.347V31.63C142.347 32.12 142.462 32.485 142.692 32.725C142.932 32.955 143.237 33.07 143.607 33.07ZM147.662 25.96V34H146.342V25.96H147.662ZM147.017 22.945C147.217 22.945 147.392 23.015 147.542 23.155C147.702 23.285 147.782 23.495 147.782 23.785C147.782 24.065 147.702 24.275 147.542 24.415C147.392 24.555 147.217 24.625 147.017 24.625C146.797 24.625 146.612 24.555 146.462 24.415C146.312 24.275 146.237 24.065 146.237 23.785C146.237 23.495 146.312 23.285 146.462 23.155C146.612 23.015 146.797 22.945 147.017 22.945ZM153.914 26.98H151.889V34H150.569V26.98H149.159V26.365L150.569 25.915V25.45C150.569 24.76 150.669 24.2 150.869 23.77C151.079 23.34 151.379 23.025 151.769 22.825C152.159 22.625 152.629 22.525 153.179 22.525C153.499 22.525 153.789 22.555 154.049 22.615C154.319 22.665 154.549 22.725 154.739 22.795L154.394 23.83C154.234 23.78 154.049 23.73 153.839 23.68C153.629 23.63 153.414 23.605 153.194 23.605C152.754 23.605 152.424 23.755 152.204 24.055C151.994 24.345 151.889 24.805 151.889 25.435V25.96H153.914V26.98ZM156.689 25.96V34H155.369V25.96H156.689ZM156.044 22.945C156.244 22.945 156.419 23.015 156.569 23.155C156.729 23.285 156.809 23.495 156.809 23.785C156.809 24.065 156.729 24.275 156.569 24.415C156.419 24.555 156.244 24.625 156.044 24.625C155.824 24.625 155.639 24.555 155.489 24.415C155.339 24.275 155.264 24.065 155.264 23.785C155.264 23.495 155.339 23.285 155.489 23.155C155.639 23.015 155.824 22.945 156.044 22.945ZM162.457 34.15C161.747 34.15 161.112 34.005 160.552 33.715C160.002 33.425 159.567 32.975 159.247 32.365C158.937 31.755 158.782 30.975 158.782 30.025C158.782 29.035 158.947 28.23 159.277 27.61C159.607 26.99 160.052 26.535 160.612 26.245C161.182 25.955 161.827 25.81 162.547 25.81C162.957 25.81 163.352 25.855 163.732 25.945C164.112 26.025 164.422 26.125 164.662 26.245L164.257 27.34C164.017 27.25 163.737 27.165 163.417 27.085C163.097 27.005 162.797 26.965 162.517 26.965C161.977 26.965 161.532 27.08 161.182 27.31C160.832 27.54 160.572 27.88 160.402 28.33C160.232 28.78 160.147 29.34 160.147 30.01C160.147 30.65 160.232 31.195 160.402 31.645C160.572 32.095 160.827 32.435 161.167 32.665C161.507 32.895 161.932 33.01 162.442 33.01C162.882 33.01 163.267 32.965 163.597 32.875C163.937 32.785 164.247 32.675 164.527 32.545V33.715C164.257 33.855 163.957 33.96 163.627 34.03C163.307 34.11 162.917 34.15 162.457 34.15ZM169.484 25.825C170.464 25.825 171.189 26.04 171.659 26.47C172.129 26.9 172.364 27.585 172.364 28.525V34H171.404L171.149 32.86H171.089C170.859 33.15 170.619 33.395 170.369 33.595C170.129 33.785 169.849 33.925 169.529 34.015C169.219 34.105 168.839 34.15 168.389 34.15C167.909 34.15 167.474 34.065 167.084 33.895C166.704 33.725 166.404 33.465 166.184 33.115C165.964 32.755 165.854 32.305 165.854 31.765C165.854 30.965 166.169 30.35 166.799 29.92C167.429 29.48 168.399 29.24 169.709 29.2L171.074 29.155V28.675C171.074 28.005 170.929 27.54 170.639 27.28C170.349 27.02 169.939 26.89 169.409 26.89C168.989 26.89 168.589 26.955 168.209 27.085C167.829 27.205 167.474 27.345 167.144 27.505L166.739 26.515C167.089 26.325 167.504 26.165 167.984 26.035C168.464 25.895 168.964 25.825 169.484 25.825ZM169.874 30.115C168.874 30.155 168.179 30.315 167.789 30.595C167.409 30.875 167.219 31.27 167.219 31.78C167.219 32.23 167.354 32.56 167.624 32.77C167.904 32.98 168.259 33.085 168.689 33.085C169.369 33.085 169.934 32.9 170.384 32.53C170.834 32.15 171.059 31.57 171.059 30.79V30.07L169.874 30.115ZM178.073 34.15C177.363 34.15 176.728 34.005 176.168 33.715C175.618 33.425 175.183 32.975 174.863 32.365C174.553 31.755 174.398 30.975 174.398 30.025C174.398 29.035 174.563 28.23 174.893 27.61C175.223 26.99 175.668 26.535 176.228 26.245C176.798 25.955 177.443 25.81 178.163 25.81C178.573 25.81 178.968 25.855 179.348 25.945C179.728 26.025 180.038 26.125 180.278 26.245L179.873 27.34C179.633 27.25 179.353 27.165 179.033 27.085C178.713 27.005 178.413 26.965 178.133 26.965C177.593 26.965 177.148 27.08 176.798 27.31C176.448 27.54 176.188 27.88 176.018 28.33C175.848 28.78 175.763 29.34 175.763 30.01C175.763 30.65 175.848 31.195 176.018 31.645C176.188 32.095 176.443 32.435 176.783 32.665C177.123 32.895 177.548 33.01 178.058 33.01C178.498 33.01 178.883 32.965 179.213 32.875C179.553 32.785 179.863 32.675 180.143 32.545V33.715C179.873 33.855 179.573 33.96 179.243 34.03C178.923 34.11 178.533 34.15 178.073 34.15ZM179.303 36.085C179.303 36.405 179.218 36.675 179.048 36.895C178.888 37.125 178.643 37.3 178.313 37.42C177.983 37.54 177.573 37.6 177.083 37.6C176.933 37.6 176.788 37.59 176.648 37.57C176.518 37.56 176.413 37.545 176.333 37.525V36.7C176.423 36.72 176.543 36.735 176.693 36.745C176.843 36.765 176.988 36.775 177.128 36.775C177.488 36.775 177.763 36.725 177.953 36.625C178.143 36.535 178.238 36.365 178.238 36.115C178.238 35.855 178.103 35.665 177.833 35.545C177.573 35.425 177.253 35.34 176.873 35.29L177.518 34H178.388L177.998 34.795C178.238 34.845 178.458 34.92 178.658 35.02C178.858 35.13 179.013 35.27 179.123 35.44C179.243 35.61 179.303 35.825 179.303 36.085ZM189.045 29.965C189.045 30.635 188.955 31.23 188.775 31.75C188.605 32.26 188.355 32.695 188.025 33.055C187.705 33.415 187.31 33.69 186.84 33.88C186.38 34.06 185.865 34.15 185.295 34.15C184.765 34.15 184.275 34.06 183.825 33.88C183.375 33.69 182.985 33.415 182.655 33.055C182.325 32.695 182.065 32.26 181.875 31.75C181.695 31.23 181.605 30.635 181.605 29.965C181.605 29.075 181.755 28.325 182.055 27.715C182.355 27.095 182.785 26.625 183.345 26.305C183.905 25.975 184.57 25.81 185.34 25.81C186.07 25.81 186.71 25.975 187.26 26.305C187.82 26.625 188.255 27.095 188.565 27.715C188.885 28.325 189.045 29.075 189.045 29.965ZM182.97 29.965C182.97 30.595 183.05 31.145 183.21 31.615C183.38 32.075 183.64 32.43 183.99 32.68C184.34 32.93 184.785 33.055 185.325 33.055C185.865 33.055 186.31 32.93 186.66 32.68C187.01 32.43 187.265 32.075 187.425 31.615C187.595 31.145 187.68 30.595 187.68 29.965C187.68 29.325 187.595 28.78 187.425 28.33C187.255 27.88 186.995 27.535 186.645 27.295C186.305 27.045 185.86 26.92 185.31 26.92C184.49 26.92 183.895 27.19 183.525 27.73C183.155 28.27 182.97 29.015 182.97 29.965ZM182.58 24.91C182.61 24.61 182.665 24.345 182.745 24.115C182.835 23.875 182.95 23.675 183.09 23.515C183.23 23.345 183.395 23.215 183.585 23.125C183.775 23.035 183.99 22.99 184.23 22.99C184.45 22.99 184.66 23.035 184.86 23.125C185.07 23.205 185.27 23.305 185.46 23.425C185.65 23.535 185.83 23.635 186 23.725C186.18 23.805 186.35 23.845 186.51 23.845C186.74 23.845 186.915 23.775 187.035 23.635C187.165 23.485 187.265 23.265 187.335 22.975H188.085C188.025 23.555 187.855 24.02 187.575 24.37C187.295 24.72 186.92 24.895 186.45 24.895C186.24 24.895 186.035 24.855 185.835 24.775C185.635 24.685 185.435 24.585 185.235 24.475C185.045 24.355 184.86 24.255 184.68 24.175C184.51 24.085 184.34 24.04 184.17 24.04C183.93 24.04 183.75 24.115 183.63 24.265C183.51 24.405 183.415 24.62 183.345 24.91H182.58ZM194.242 25.81C194.932 25.81 195.522 25.96 196.012 26.26C196.512 26.56 196.892 26.985 197.152 27.535C197.422 28.075 197.557 28.71 197.557 29.44V30.235H192.052C192.072 31.145 192.302 31.84 192.742 32.32C193.192 32.79 193.817 33.025 194.617 33.025C195.127 33.025 195.577 32.98 195.967 32.89C196.367 32.79 196.777 32.65 197.197 32.47V33.625C196.787 33.805 196.382 33.935 195.982 34.015C195.582 34.105 195.107 34.15 194.557 34.15C193.797 34.15 193.122 33.995 192.532 33.685C191.952 33.375 191.497 32.915 191.167 32.305C190.847 31.685 190.687 30.93 190.687 30.04C190.687 29.16 190.832 28.405 191.122 27.775C191.422 27.145 191.837 26.66 192.367 26.32C192.907 25.98 193.532 25.81 194.242 25.81ZM194.227 26.89C193.597 26.89 193.097 27.095 192.727 27.505C192.367 27.905 192.152 28.465 192.082 29.185H196.177C196.177 28.725 196.107 28.325 195.967 27.985C195.827 27.645 195.612 27.38 195.322 27.19C195.042 26.99 194.677 26.89 194.227 26.89ZM204.839 31.78C204.839 32.3 204.709 32.735 204.449 33.085C204.189 33.435 203.819 33.7 203.339 33.88C202.859 34.06 202.289 34.15 201.629 34.15C201.069 34.15 200.584 34.105 200.174 34.015C199.774 33.925 199.419 33.8 199.109 33.64V32.44C199.429 32.6 199.814 32.75 200.264 32.89C200.724 33.02 201.189 33.085 201.659 33.085C202.329 33.085 202.814 32.98 203.114 32.77C203.414 32.55 203.564 32.26 203.564 31.9C203.564 31.7 203.509 31.52 203.399 31.36C203.289 31.2 203.089 31.04 202.799 30.88C202.519 30.72 202.114 30.54 201.584 30.34C201.064 30.14 200.619 29.94 200.249 29.74C199.879 29.54 199.594 29.3 199.394 29.02C199.194 28.74 199.094 28.38 199.094 27.94C199.094 27.26 199.369 26.735 199.919 26.365C200.479 25.995 201.209 25.81 202.109 25.81C202.599 25.81 203.054 25.86 203.474 25.96C203.904 26.05 204.304 26.18 204.674 26.35L204.224 27.4C204.004 27.3 203.769 27.215 203.519 27.145C203.279 27.065 203.034 27.005 202.784 26.965C202.534 26.915 202.279 26.89 202.019 26.89C201.479 26.89 201.064 26.98 200.774 27.16C200.494 27.33 200.354 27.565 200.354 27.865C200.354 28.085 200.419 28.275 200.549 28.435C200.679 28.585 200.894 28.735 201.194 28.885C201.504 29.025 201.914 29.195 202.424 29.395C202.934 29.585 203.369 29.78 203.729 29.98C204.089 30.18 204.364 30.425 204.554 30.715C204.744 30.995 204.839 31.35 204.839 31.78Z" fill="#AAAAAA" fill-opacity="0.666667"/>
<path d="M34.4081 16.0426C40.52 16.0426 45.4805 21.0183 45.4805 27.149C45.4805 33.2797 40.52 38.2554 34.4081 38.2554C28.2961 38.2554 23.3357 33.2797 23.3357 27.149C23.3357 21.0183 28.2961 16.0426 34.4081 16.0426ZM34.4081 35.7873C39.1661 35.7873 43.0199 31.9216 43.0199 27.149C43.0199 22.3763 39.1661 18.5107 34.4081 18.5107C29.65 18.5107 25.7962 22.3763 25.7962 27.149C25.7962 31.9216 29.65 35.7873 34.4081 35.7873ZM44.8472 35.875L48.3269 39.3654L46.5871 41.1106L43.1074 37.6202L44.8472 35.875Z" fill="#AAAAAA" fill-opacity="0.666667"/>
</svg>
