<svg width="21" height="27" viewBox="0 0 21 27" fill="none" xmlns="http://www.w3.org/2000/svg">
<path d="M13.04 24.3604C12.8103 25.5839 11.7556 26.5 10.5 26.5C9.24438 26.5 8.18968 25.5839 7.95996 24.3604H13.04ZM10.5 0.5C15.674 0.50001 19.8818 4.76669 19.8818 10.0469V21.0947L19.9795 21.2275L20.4736 21.8965C20.5173 21.9556 20.5039 22.0396 20.4502 22.0811H20.4492C20.429 22.0965 20.4053 22.1045 20.3818 22.1045H0.617188C0.560113 22.1042 0.5 22.0548 0.5 21.9766C0.500039 21.9468 0.509176 21.9185 0.525391 21.8965L1.01953 21.2275L1.11719 21.0947V10.0469C1.11719 4.76668 5.32601 0.5 10.5 0.5Z" stroke="#005691"/>
</svg>
