<svg width="26" height="26" viewBox="0 0 26 26" fill="none" xmlns="http://www.w3.org/2000/svg">
<path d="M11.4081 0.0426025C17.52 0.0426025 22.4805 5.01826 22.4805 11.149C22.4805 17.2797 17.52 22.2554 11.4081 22.2554C5.29612 22.2554 0.335693 17.2797 0.335693 11.149C0.335693 5.01826 5.29612 0.0426025 11.4081 0.0426025ZM11.4081 19.7873C16.1661 19.7873 20.0199 15.9216 20.0199 11.149C20.0199 6.37633 16.1661 2.51069 11.4081 2.51069C6.65003 2.51069 2.79622 6.37633 2.79622 11.149C2.79622 15.9216 6.65003 19.7873 11.4081 19.7873ZM21.8472 19.875L25.3269 23.3654L23.5871 25.1106L20.1074 21.6202L21.8472 19.875Z" fill="#AAAAAA" fill-opacity="0.666667"/>
</svg>
